<?xml version="1.0" encoding="UTF-8" standalone="no"?>
<!-- Created with Fritzing (http://www.fritzing.org/) -->

<svg
   y="0in"
   width="0.91231894in"
   viewBox="0 0 912.31895 699.99737"
   version="1.2"
   height="0.69999737in"
   x="0in"
   id="svg1219"
   xml:space="preserve"
   sodipodi:docname="XIAO_ES32-S3.svg"
   inkscape:export-filename="XIAO_ES32-S3.svg"
   inkscape:export-xdpi="96"
   inkscape:export-ydpi="96"
   inkscape:version="1.4.3 (0d15f750, 2025-12-25)"
   xmlns:inkscape="http://www.inkscape.org/namespaces/inkscape"
   xmlns:sodipodi="http://sodipodi.sourceforge.net/DTD/sodipodi-0.dtd"
   xmlns="http://www.w3.org/2000/svg"
   xmlns:svg="http://www.w3.org/2000/svg"><sodipodi:namedview
   id="namedview1"
   pagecolor="#ffffff"
   bordercolor="#000000"
   borderopacity="0.25"
   inkscape:showpageshadow="2"
   inkscape:pageopacity="0.0"
   inkscape:pagecheckerboard="0"
   inkscape:deskcolor="#d1d1d1"
   inkscape:document-units="in"
   inkscape:zoom="4.3773442"
   inkscape:cx="43.519539"
   inkscape:cy="33.239333"
   inkscape:window-width="1440"
   inkscape:window-height="842"
   inkscape:window-x="0"
   inkscape:window-y="30"
   inkscape:window-maximized="1"
   inkscape:current-layer="breadboard"
   showguides="true"><inkscape:page
     x="0"
     y="0"
     width="912.31897"
     height="699.99738"
     id="page2"
     margin="0"
     bleed="0" /></sodipodi:namedview>
  <defs
   id="defs1223" />
  <desc
   id="desc2">Fritzing
    breadboard
    generated
    by
    brd2svg</desc>
  <g
   id="breadboard"
   transform="translate(-3.4935043)">
    <path
   d="m 165.81528,0 h 674.9975 c 41.42121,0 74.99973,33.578515 74.99973,74.999723 V 624.99769 c -3e-5,41.42118 -33.57855,74.99968 -74.99973,74.99968 h -674.9975 c -41.42119,0 -74.999706,-33.5785 -74.999729,-74.99968 V 74.999723 C 90.815551,33.578515 124.39407,0 165.81528,0 m 18.26798,649.9976 c -0.0639,22.37335 33.52827,22.37335 33.46446,0 0.0639,-22.37335 -33.52827,-22.37335 -33.46446,0 z m 99.99964,0 c -0.0639,22.374 33.52891,22.374 33.46445,0 0.0639,-22.374 -33.52891,-22.374 -33.46445,0 z m 99.99963,0 c -0.0639,22.374 33.52891,22.374 33.46446,0 0.0639,-22.374 -33.52892,-22.374 -33.46446,0 z m 99.99963,0 c -0.0639,22.374 33.52891,22.374 33.46446,0 0.0639,-22.374 -33.52892,-22.374 -33.46446,0 z m 99.99963,0 c -0.0639,22.374 33.52891,22.374 33.46446,0 0.0639,-22.374 -33.52892,-22.374 -33.46446,0 z m 99.99963,0 c -0.0639,22.374 33.52891,22.374 33.46446,0 0.0639,-22.374 -33.52892,-22.374 -33.46446,0 z m 99.99963,0 c -0.0639,22.374 33.52892,22.374 33.46446,0 0.0639,-22.374 -33.52892,-22.374 -33.46446,0 z m 0,-599.997785 c -0.0639,22.374001 33.52892,22.374001 33.46446,0 0.0639,-22.374 -33.52892,-22.374 -33.46446,0 z m -99.99963,0 c -0.0639,22.374001 33.52891,22.374001 33.46446,0 0.0639,-22.374 -33.52892,-22.374 -33.46446,0 z m -99.99963,0 c -0.0639,22.374001 33.52891,22.374001 33.46446,0 0.0639,-22.374 -33.52892,-22.374 -33.46446,0 z m -99.99963,0 c -0.0639,22.374001 33.52891,22.374001 33.46446,0 0.0639,-22.374 -33.52892,-22.374 -33.46446,0 z m -99.99963,0 c -0.0639,22.374001 33.52891,22.374001 33.46446,0 0.0639,-22.374 -33.52892,-22.374 -33.46446,0 z m -99.99963,0 c -0.0639,22.374001 33.52891,22.374001 33.46445,0 0.0639,-22.374 -33.52891,-22.374 -33.46445,0 z m -99.99964,0 c -0.0639,22.373348 33.52827,22.373348 33.46446,0 0.0639,-22.373348 -33.52827,-22.373348 -33.46446,0 z"
   fill="#1a1a1a"
   stroke="none"
   stroke-width="0"
   id="path4"
   style="display:inline" /><g
   id="g51"
   style="display:inline"
   transform="matrix(0,-13.903254,13.552315,0,15.320503,747.70514)">
        <g
   transform="rotate(180,28.8,10.4173)"
   id="g47"
   style="display:inline">
            <rect
   width="25.341999"
   height="20.834999"
   x="16.129"
   fill="#dcdcdc"
   y="0"
   id="rect46" />
        </g>
        <path
   d="m 38.013,20.268 h 0.567 v 1.304 h -0.567 z m -0.851,1.304 h 0.567 v -1.304 h -0.567 z m -1.417,0 h 0.567 v -1.304 h -0.567 z m -0.851,0 h 0.567 v -1.304 h -0.567 z m -1.417,0 h 0.567 v -1.304 h -0.567 z m -1.417,0 h 0.567 V 20.268 H 32.06 Z m -1.417,0 h 0.567 v -1.304 h -0.567 z m -1.418,0 h 0.567 v -1.304 h -0.567 z m -1.417,0 h 0.567 v -1.304 h -0.567 z m -1.417,0 h 0.567 v -1.304 h -0.567 z m -1.418,0 h 0.567 v -1.304 h -0.567 z m -1.417,0 h 0.567 v -1.304 h -0.567 z m -1.417,0 h 0.567 v -1.304 h -0.567 z m -0.851,0 h 0.567 v -1.304 h -0.567 z m -1.417,0 h 0.567 v -1.304 h -0.567 z m -0.851,0 h 0.567 V 20.268 H 19.02 Z"
   fill="#dcdcdc"
   id="path47"
   style="display:inline" />
        <g
   transform="rotate(180,38.7781,10.4173)"
   id="g48"
   style="display:inline">
            <rect
   width="1.2970001"
   height="20.834999"
   x="38.129002"
   fill="#f0f0f0"
   y="0"
   id="rect47" />
        </g>
        <g
   transform="rotate(180,18.8219,10.4173)"
   id="g49"
   style="display:inline">
            <rect
   width="1.2970001"
   height="20.834999"
   x="18.173"
   fill="#bebebe"
   y="0"
   id="rect48" />
        </g>
        <path
   d="m 16.129,20.835 v -1.998 h 0.283 c 0.344,0 0.624,0.279 0.624,0.624 v 0.533 c 0,0.344 0.279,0.624 0.624,0.624 h 2.831 c 0.344,0 0.624,-0.279 0.624,-0.624 v -2.022 c 0,-0.344 0.279,-0.624 0.624,-0.624 h 3.413 c 0.344,0 0.624,0.279 0.624,0.624 v 0.047 c 0,0.344 -0.279,0.624 -0.624,0.624 h -1.536 c -0.344,0 -0.624,0.279 -0.624,0.624 v 0.727 c 0,0.344 0.279,0.624 0.624,0.624 h 10.372 c 0.344,0 0.624,-0.279 0.624,-0.624 v -0.727 c 0,-0.344 -0.279,-0.624 -0.624,-0.624 H 32.45 c -0.344,0 -0.624,-0.279 -0.624,-0.624 v -0.047 c 0,-0.344 0.279,-0.624 0.624,-0.624 h 3.413 c 0.344,0 0.624,0.279 0.624,0.624 v 2.022 c 0,0.344 0.279,0.624 0.624,0.624 h 2.831 c 0.344,0 0.624,-0.279 0.624,-0.624 V 19.46 c 0,-0.344 0.279,-0.624 0.624,-0.624 h 0.283 v 1.998 H 16.129 Z"
   fill="#8c8c8c"
   id="path49"
   style="display:inline" />
        <g
   transform="rotate(180,33.84895,14.3053)"
   id="g50"
   style="display:inline">
            <rect
   width="3.4630001"
   height="1.424"
   x="32.117001"
   fill="#8c8c8c"
   y="13.593"
   id="rect49" />
        </g>
        <rect
   width="3.4630001"
   height="1.424"
   x="22.02"
   fill="#8c8c8c"
   y="13.593"
   id="rect50" /><rect
   width="1.2970001"
   height="20.834999"
   x="18.173"
   fill="#bebebe"
   y="0"
   id="rect48-8"
   style="display:inline"
   transform="matrix(0,-1.0047967,1.2164741,0,16.117712,18.6907)" />
    </g>
    <rect
   id="rect20597"
   width="418.21872"
   height="489.52832"
   x="346.69592"
   y="99.916718"
   fill="#e6e6e6"
   stroke="none"
   stroke-width="0"
   style="display:inline" />
    
    
    
    
    
    
    
    
    
    
    
    
    
    
    
    
    
    
    
    
    
    
    
    
    
    
    
    
    
    
    
    
    
    
    
    
    
    
    
    
    
    
    
    
    
    
    
    
    
    
    
    
    
    
    
    
    
    
    
    
    
    
    
    
    
    
    
    
    
    
    
    
    
    
    
    
    
    
    
    
    
    
    
    
    
    
    
    
    
    
    
    
    
    
    
    
    
    
    
    
    
    
    
    
    
    
    
    
    
    
    
    
    
    
    
    
    
    
    
    
    
    
    
    
    
    
    
    
    
    
    
    
    
    
    
    <g
   id="g1"
   style="display:inline"><circle
     fill="none"
     stroke="#9a916c"
     stroke-width="12.7953"
     connectorname="RX_D7"
     cy="649.99762"
     r="23.129776"
     cx="200.81516"
     id="connector8pin" /><circle
     fill="none"
     stroke="#9a916c"
     stroke-width="12.7953"
     connectorname="D8"
     cy="649.99762"
     r="23.129776"
     cx="300.81479"
     id="connector9pin" /><circle
     fill="none"
     stroke="#9a916c"
     stroke-width="12.7953"
     connectorname="D9"
     cy="649.99762"
     r="23.129776"
     cx="400.81442"
     id="connector10pin" /><circle
     fill="none"
     stroke="#9a916c"
     stroke-width="12.7953"
     connectorname="D10"
     cy="649.99762"
     r="23.129776"
     cx="500.81403"
     id="connector11pin" /><circle
     fill="none"
     stroke="#9a916c"
     stroke-width="12.7953"
     connectorname="VCC_3V3"
     cy="649.99762"
     r="23.129776"
     cx="600.81366"
     id="connector12pin" /><circle
     fill="none"
     stroke="#9a916c"
     stroke-width="12.7953"
     connectorname="GND"
     cy="649.99762"
     r="23.129776"
     cx="700.81329"
     id="connector13pin" /><circle
     fill="none"
     stroke="#9a916c"
     stroke-width="12.7953"
     connectorname="VUSB"
     cy="649.99762"
     r="23.129776"
     cx="800.81293"
     id="connector14pin"
     style="display:inline" /><circle
     fill="none"
     stroke="#9a916c"
     stroke-width="12.7953"
     connectorname="D0"
     cy="49.99979"
     r="23.129776"
     cx="800.81293"
     id="connector15pin" /><circle
     fill="none"
     stroke="#9a916c"
     stroke-width="12.7953"
     connectorname="D1"
     cy="49.99979"
     r="23.129776"
     cx="700.81329"
     id="connector16pin" /><circle
     fill="none"
     stroke="#9a916c"
     stroke-width="12.7953"
     connectorname="D2"
     cy="49.99979"
     r="23.129776"
     cx="600.81366"
     id="connector17pin" /><circle
     fill="none"
     stroke="#9a916c"
     stroke-width="12.7953"
     connectorname="D3"
     cy="49.99979"
     r="23.129776"
     cx="500.81403"
     id="connector18pin" /><circle
     fill="none"
     stroke="#9a916c"
     stroke-width="12.7953"
     connectorname="D4"
     cy="49.99979"
     r="23.129776"
     cx="400.81442"
     id="connector19pin" /><circle
     fill="none"
     stroke="#9a916c"
     stroke-width="12.7953"
     connectorname="D5"
     cy="49.99979"
     r="23.129776"
     cx="300.81479"
     id="connector20pin"
     style="display:inline" /><circle
     fill="none"
     stroke="#9a916c"
     stroke-width="12.7953"
     connectorname="TX_D6"
     cy="49.99979"
     r="23.129776"
     cx="200.81516"
     id="connector21pin"
     style="display:inline" /></g>
  <path
   d="m 597.83353,506.57147 v 18.514 h -19.5516 v 5.65592 h 19.5516 v 18.49365 h 5.87972 v -18.49365 h 19.53125 v -5.65592 h -19.53125 v -18.514 z"
   style="font-size:69.908px;font-family:OCRA;display:inline;stroke-width:1.44433"
   id="path5" /><path
   d="m 412.42906,122.31446 c -6.48877,0 -11.55053,1.51118 -15.2181,4.53694 -3.66757,3.02576 -5.5135,7.19127 -5.5135,12.49187 0,5.32268 1.84593,9.48644 5.5135,12.5122 3.66757,3.00368 8.72933,4.51661 15.2181,4.51661 6.46527,0 11.54737,-1.51293 15.23845,-4.51661 3.66757,-3.02576 5.51351,-7.18952 5.51351,-12.5122 0,-5.3006 -1.84594,-9.46611 -5.51351,-12.49187 -3.69108,-3.02576 -8.77318,-4.53694 -15.23845,-4.53694 z m 0,6.44938 c 4.70202,0 8.42193,0.94892 11.14909,2.84831 2.72717,1.89938 4.08936,4.4845 4.08936,7.73112 0,3.29078 -1.34501,5.87242 -4.04867,7.77181 -2.72716,1.87729 -6.46425,2.82796 -11.18978,2.82796 -4.72551,0 -8.42508,-0.94893 -11.12874,-2.84831 -2.72716,-1.89938 -4.08936,-4.48276 -4.08936,-7.75146 0,-3.24662 1.35903,-5.83174 4.10971,-7.73112 2.72716,-1.89939 6.4299,-2.84831 11.10839,-2.84831 z m -35.15625,37.69938 v 6.10352 h 8.2194 v -6.10352 z m 15.38086,0 v 6.10352 h 39.48975 v -6.10352 z m -15.38086,18.65641 v 6.10352 h 21.38265 c -2.35101,1.28098 -4.10019,2.89683 -5.22868,4.86247 -1.15199,1.94355 -1.72932,4.2804 -1.72932,7.01904 0,4.48342 1.90833,8.139 5.71695,10.96598 3.80863,2.80491 8.808,4.21143 15.01465,4.21143 6.20666,0 11.22637,-1.40652 15.035,-4.21143 3.80863,-2.82698 5.71696,-6.48256 5.71696,-10.96598 0,-2.73864 -0.5805,-5.07549 -1.70899,-7.01904 -1.15199,-1.96564 -2.89802,-3.58149 -5.24902,-4.86247 h 5.92041 v -6.10352 z m 35.15625,6.10352 c 4.77255,0 8.52366,0.91172 11.25082,2.76693 2.70366,1.85521 4.06901,4.40486 4.06901,7.62939 0,3.22453 -1.36535,5.75384 -4.06901,7.60905 -2.72716,1.83313 -6.47827,2.76693 -11.25082,2.76693 -4.77253,0 -8.50646,-0.9338 -11.21012,-2.76693 -2.72716,-1.85521 -4.08936,-4.38452 -4.08936,-7.60905 0,-3.22453 1.3622,-5.77418 4.08936,-7.62939 2.70366,-1.85521 6.43759,-2.76693 11.21012,-2.76693 z m -19.77539,36.96696 v 6.08317 h 22.39991 c 3.85565,0 6.90147,0.96753 9.13492,2.889 2.23346,1.89938 3.33659,4.50137 3.33659,7.79215 0,2.73865 -0.92997,4.79523 -2.78727,6.16456 -1.8808,1.36931 -4.68476,2.05485 -8.42285,2.05485 h -23.6613 v 6.08317 h 23.90544 c 5.43082,0 9.56893,-1.10766 12.39014,-3.31625 2.8212,-2.20858 4.23177,-5.44202 4.23177,-9.70459 0,-2.58404 -0.57733,-4.85169 -1.72933,-6.79524 -1.1755,-1.96564 -2.97307,-3.68789 -5.3711,-5.16765 h 6.06283 v -6.08317 z m 0,38.45215 v 12.5529 h -11.21012 v 6.1442 h 11.21012 v 4.45557 h 5.04558 v -4.45557 h 21.44368 c 4.93711,0 8.33241,-0.8966 10.21322,-2.68554 1.85729,-1.78896 2.78727,-5.041 2.78727,-9.74528 v -6.26628 h -5.43213 v 6.26628 c 0,2.53987 -0.44623,4.22666 -1.36312,5.06592 -0.91689,0.81717 -2.98436,1.2207 -6.20524,1.2207 h -21.44368 v -12.5529 z m 24.96338,28.76791 c -4.27883,0 -7.67413,1.19545 -10.21321,3.58072 -2.5626,2.36319 -4.36017,6.03562 -5.3711,11.02702 l -0.87484,4.02832 c -0.72881,3.66625 -1.69315,6.16183 -2.86865,7.48698 -1.19901,1.30307 -2.96222,1.97347 -5.28971,1.97347 -2.77419,0 -4.90405,-0.98439 -6.40869,-2.95003 -1.50465,-1.98772 -2.2583,-4.81938 -2.2583,-8.46354 0,-2.09815 0.32144,-4.25766 0.95621,-6.51042 0.63478,-2.25275 1.59595,-4.66227 2.889,-7.20215 h -6.95801 c -0.89338,2.51779 -1.54712,4.9779 -1.99381,7.38526 -0.44669,2.40736 -0.67139,4.78141 -0.67139,7.10042 0,5.41103 1.32784,9.66433 4.00798,12.75635 2.68014,3.06993 6.35168,4.59798 11.00667,4.59798 4.02022,0 7.1628,-1.10591 9.41976,-3.33659 2.25696,-2.23067 3.90624,-5.85251 4.96419,-10.84391 l 0.85449,-4.06901 c 0.72882,-3.40122 1.81794,-5.84447 3.27556,-7.32422 1.45762,-1.50183 3.47672,-2.2583 6.06282,-2.2583 2.96227,0 5.25761,1.03672 6.85629,3.11279 1.59868,2.07607 2.38037,5.02925 2.38037,8.8501 0,2.51779 -0.39785,5.0843 -1.22071,7.69043 -0.82285,2.60613 -2.06026,5.2587 -3.68245,7.97526 h 7.34456 c 1.10498,-2.82699 1.9382,-5.55049 2.50245,-8.17871 0.56424,-2.6503 0.85449,-5.14588 0.85449,-7.48698 0,-6.20612 -1.31381,-10.91702 -3.94694,-14.11947 -2.63313,-3.22453 -6.51535,-4.82177 -11.61703,-4.82177 z m -40.34424,67.0166 v 6.08317 h 21.38265 c -2.35101,1.28098 -4.10019,2.91717 -5.22868,4.88281 -1.15199,1.94356 -1.72932,4.2804 -1.72932,7.01905 0,4.48342 1.90833,8.13899 5.71695,10.96598 3.80863,2.80489 8.808,4.21142 15.01465,4.21142 6.20666,0 11.22637,-1.40653 15.035,-4.21142 3.80863,-2.82699 5.71696,-6.48256 5.71696,-10.96598 0,-2.73865 -0.5805,-5.07549 -1.70899,-7.01905 -1.15199,-1.96564 -2.89802,-3.60183 -5.24902,-4.88281 h 5.92041 v -6.08317 z m 35.15625,6.08317 c 4.77255,0 8.52366,0.93206 11.25082,2.78727 2.70366,1.85521 4.06901,4.40487 4.06901,7.6294 0,3.22453 -1.36535,5.75384 -4.06901,7.60905 -2.72716,1.83312 -6.47827,2.74658 -11.25082,2.74658 -4.77253,0 -8.50646,-0.91346 -11.21012,-2.74658 -2.72716,-1.85521 -4.08936,-4.38452 -4.08936,-7.60905 0,-3.22453 1.3622,-5.77419 4.08936,-7.6294 2.70366,-1.85521 6.43759,-2.78727 11.21012,-2.78727 z m -1.64795,34.42383 c -5.8775,0 -10.52739,1.45885 -13.93636,4.37419 -3.43246,2.89324 -5.14729,6.84942 -5.14729,11.84082 0,5.56563 1.90833,9.99453 5.71695,13.28532 3.78512,3.2687 8.9156,4.90315 15.38086,4.90315 6.25368,0 11.20467,-1.7426 14.87224,-5.18799 3.66757,-3.46747 5.51351,-8.15977 5.51351,-14.07877 0,-2.36318 -0.25589,-4.68143 -0.77311,-6.97835 -0.51722,-2.29694 -1.27088,-4.54772 -2.25831,-6.73422 h -6.1442 c 1.22252,2.16441 2.13532,4.36287 2.74658,6.57145 0.61127,2.18651 0.91553,4.45416 0.91553,6.79525 0,4.04171 -1.15151,7.18561 -3.47901,9.46045 -2.351,2.25276 -5.76664,3.51915 -10.23356,3.78418 v -28.03548 z m -1.91243,6.10351 0.0407,21.72852 c -3.71458,-0.3092 -6.60127,-1.48779 -8.64665,-3.51969 -2.04537,-2.05399 -3.05176,-4.7775 -3.05176,-8.17871 0,-3.00368 1.05793,-5.41146 3.17383,-7.2225 2.11591,-1.8331 4.93388,-2.76342 8.48389,-2.80762 z m 1.91243,35.64454 c -5.8775,0 -10.52739,1.45885 -13.93636,4.37418 -3.43246,2.89325 -5.14729,6.82908 -5.14729,11.82048 0,5.56563 1.90833,9.99452 5.71695,13.28532 3.78512,3.2687 8.9156,4.90316 15.38086,4.90316 6.25368,0 11.20467,-1.72226 14.87224,-5.16765 3.66757,-3.46748 5.51351,-8.15977 5.51351,-14.07877 0,-2.36319 -0.25589,-4.68143 -0.77311,-6.97836 -0.51722,-2.29692 -1.27088,-4.54771 -2.25831,-6.73421 h -6.1442 c 1.22252,2.16441 2.13532,4.34253 2.74658,6.55111 0.61127,2.18649 0.91553,4.45414 0.91553,6.79525 0,4.0417 -1.15151,7.20595 -3.47901,9.48079 -2.351,2.25275 -5.76664,3.51915 -10.23356,3.78418 v -28.03548 z m -1.91243,6.10351 0.0407,21.72852 c -3.71458,-0.30921 -6.60127,-1.4878 -8.64665,-3.51969 -2.04537,-2.05399 -3.05176,-4.7775 -3.05176,-8.17872 0,-3.00367 1.05793,-5.41145 3.17383,-7.22249 2.11591,-1.8331 4.93388,-2.76342 8.48389,-2.80762 z m 1.91243,35.64454 c -5.8775,0 -10.52739,1.45885 -13.93636,4.37418 -3.43246,2.89325 -5.14729,6.82908 -5.14729,11.82048 0,5.56563 1.90833,9.99453 5.71695,13.28532 3.78512,3.2687 8.9156,4.90315 15.38086,4.90315 6.25368,0 11.20467,-1.72225 14.87224,-5.16764 3.66757,-3.46748 5.51351,-8.15977 5.51351,-14.07878 0,-2.36318 -0.25589,-4.70176 -0.77311,-6.99869 -0.51722,-2.29693 -1.27088,-4.52737 -2.25831,-6.71387 h -6.1442 c 1.22252,2.16441 2.13532,4.34252 2.74658,6.55111 0.61127,2.1865 0.91553,4.45415 0.91553,6.79524 0,4.04171 -1.15151,7.20596 -3.47901,9.4808 -2.351,2.25276 -5.76664,3.4988 -10.23356,3.76383 v -28.01513 z m -1.91243,6.08317 0.0407,21.74886 c -3.71458,-0.30921 -6.60127,-1.4878 -8.64665,-3.5197 -2.04537,-2.05398 -3.05176,-4.77749 -3.05176,-8.17871 0,-3.00367 1.05793,-5.41145 3.17383,-7.22249 2.11591,-1.8331 4.93388,-2.78377 8.48389,-2.82796 z m 8.74837,35.82763 c -4.27883,0 -7.67413,1.17511 -10.21321,3.56039 -2.5626,2.36318 -4.36017,6.05596 -5.3711,11.04736 l -0.87484,4.02832 c -0.72881,3.66625 -1.69315,6.16183 -2.86865,7.48698 -1.19901,1.30306 -2.96222,1.95313 -5.28971,1.95313 -2.77419,0 -4.90405,-0.9844 -6.40869,-2.95004 -1.50465,-1.98772 -2.2583,-4.79903 -2.2583,-8.44319 0,-2.09816 0.32144,-4.27801 0.95621,-6.53076 0.63478,-2.25276 1.59595,-4.64193 2.889,-7.18181 h -6.95801 c -0.89338,2.51779 -1.54712,4.9779 -1.99381,7.38526 -0.44669,2.40736 -0.67139,4.78141 -0.67139,7.10042 0,5.41103 1.32784,9.66433 4.00798,12.75635 2.68014,3.06993 6.35168,4.59798 11.00667,4.59798 4.02022,0 7.1628,-1.10592 9.41976,-3.33659 2.25696,-2.23067 3.90624,-5.85251 4.96419,-10.84391 l 0.85449,-4.06901 c 0.72882,-3.40123 1.81794,-5.84447 3.27556,-7.32422 1.45762,-1.50184 3.47672,-2.2583 6.06282,-2.2583 2.96227,0 5.25761,1.03672 6.85629,3.11279 1.59868,2.07607 2.38037,5.02925 2.38037,8.8501 0,2.51779 -0.39785,5.0843 -1.22071,7.69043 -0.82285,2.60613 -2.06026,5.2587 -3.68245,7.97526 h 7.34456 c 1.10498,-2.82699 1.9382,-5.5505 2.50245,-8.17871 0.56424,-2.6503 0.85449,-5.14588 0.85449,-7.48698 0,-6.20612 -1.31381,-10.91702 -3.94694,-14.11947 -2.63313,-3.22454 -6.51535,-4.82178 -11.61703,-4.82178 z"
   style="font-size:70.0011px;font-family:OCRA;display:inline;stroke-width:1.44434"
   id="path3" /><path
   d="m 511.77396,146.52507 c -1.94034,0 -3.56231,0.50825 -4.88282,1.54622 -1.32051,1.02533 -2.18645,2.45736 -2.60416,4.29281 -0.44466,-1.65824 -1.23503,-2.92614 -2.38037,-3.82487 -1.15882,-0.89874 -2.58127,-1.36312 -4.25212,-1.36312 -2.39847,0 -4.29526,0.84692 -5.69662,2.54313 -1.41483,1.69621 -2.13623,4.00591 -2.13623,6.91732 0,1.12659 0.10993,2.32259 0.32553,3.60108 0.21559,1.26583 0.54537,2.63365 0.97656,4.08935 h 3.64176 c -0.51203,-1.44305 -0.89677,-2.76475 -1.13932,-3.96728 -0.24254,-1.20254 -0.36621,-2.32664 -0.36621,-3.37728 0,-1.92406 0.42597,-3.4099 1.26139,-4.43522 0.82195,-1.03798 2.01081,-1.54623 3.56039,-1.54623 1.50915,0 2.67052,0.50553 3.479,1.50554 0.795,1 1.18001,2.42706 1.18001,4.31315 v 3.45866 h 3.35694 v -3.2959 c 0,-2.08862 0.51529,-3.71825 1.52588,-4.88282 0.99712,-1.17722 2.37174,-1.77002 4.15039,-1.77002 1.92686,0 3.40428,0.64661 4.41487,1.91244 1.0106,1.25317 1.50554,3.06774 1.50554,5.47282 0,1.37975 -0.15142,2.70145 -0.48828,3.96728 -0.33687,1.26583 -0.84529,2.43605 -1.50554,3.49935 h 3.94694 c 0.49856,-1.34178 0.85609,-2.63273 1.09863,-3.8859 0.25602,-1.26583 0.38656,-2.49258 0.38656,-3.68246 0,-3.54432 -0.81098,-6.27499 -2.44141,-8.19905 -1.63042,-1.92406 -3.93943,-2.889 -6.91731,-2.889 z m -19.06332,23.72233 c -0.9567,1.31646 -1.68497,2.72543 -2.15657,4.23177 -0.48509,1.49368 -0.73243,3.10522 -0.73243,4.80143 0,4.29117 1.40872,7.66348 4.21143,10.13184 2.78923,2.46837 6.60341,3.7028 11.45427,3.7028 4.83736,0 8.6719,-1.23443 11.4746,-3.7028 2.78924,-2.46836 4.17074,-5.84067 4.17074,-10.13184 0,-1.6709 -0.22699,-3.26706 -0.71208,-4.76074 -0.48508,-1.50633 -1.22709,-2.93068 -2.19726,-4.27246 h -4.25212 c 1.28009,1.29115 2.23535,2.68203 2.86865,4.15039 0.63331,1.45571 0.93588,2.99309 0.93588,4.63867 0,3.24053 -1.05145,5.72477 -3.15349,7.44629 -2.1155,1.72153 -5.15993,2.58382 -9.13492,2.58382 -3.98848,0 -7.0329,-0.86229 -9.13493,-2.58382 -2.11552,-1.72152 -3.17383,-4.20576 -3.17383,-7.44629 0,-1.64558 0.32291,-3.18296 0.95622,-4.63867 0.6333,-1.46836 1.58856,-2.85924 2.86865,-4.15039 z m 14.85189,26.9572 v 10.23356 h 3.31624 V 197.2046 Z m 9.56218,16.01155 v 13.38705 c -3.35518,-3.08863 -5.97336,-5.4856 -7.83285,-7.18181 -1.87296,-1.69621 -3.00686,-2.69461 -3.39762,-3.01106 -1.50916,-1.15191 -2.82168,-1.95 -3.9266,-2.38038 -1.11839,-0.44303 -2.28003,-0.65104 -3.51969,-0.65104 -2.61407,0 -4.70323,0.87767 -6.26628,2.62451 -1.56305,1.74685 -2.36003,4.08232 -2.36003,7.01905 0,1.11393 0.17177,2.34067 0.50863,3.68245 0.33686,1.34178 0.84528,2.78919 1.50553,4.3335 h 4.10971 c -0.9028,-1.519 -1.56951,-2.94334 -2.01416,-4.27246 -0.44467,-1.34178 -0.67139,-2.62233 -0.67139,-3.82487 0,-1.69621 0.51528,-3.05906 1.52588,-4.1097 1.01059,-1.0633 2.32312,-1.60726 3.92659,-1.60726 0.98364,0 1.987,0.25909 3.01107,0.75276 1.0106,0.48102 2.23407,1.33563 3.7028,2.56348 0.78152,0.64557 2.54063,2.2214 5.24902,4.7404 2.69492,2.50634 4.84591,4.48505 6.44939,5.94075 h 3.41796 v -18.00537 z m -5.35075,23.96647 c -1.94034,0 -3.56231,0.52859 -4.88282,1.56657 -1.32051,1.02532 -2.18645,2.45735 -2.60416,4.29281 -0.44466,-1.65824 -1.23503,-2.94647 -2.38037,-3.84522 -1.15882,-0.89874 -2.58127,-1.34277 -4.25212,-1.34277 -2.39847,0 -4.29526,0.84692 -5.69662,2.54313 -1.41483,1.69622 -2.13623,4.00591 -2.13623,6.91732 0,1.12658 0.10993,2.32259 0.32553,3.60108 0.21559,1.26583 0.54537,2.6133 0.97656,4.06901 h 3.64176 c -0.51203,-1.44305 -0.89677,-2.76475 -1.13932,-3.96729 -0.24254,-1.20253 -0.36621,-2.32664 -0.36621,-3.37728 0,-1.92406 0.42597,-3.38956 1.26139,-4.41487 0.82195,-1.03799 2.01081,-1.56657 3.56039,-1.56657 1.50915,0 2.67052,0.50552 3.479,1.50553 0.795,1 1.18001,2.44741 1.18001,4.3335 v 3.45866 h 3.35694 v -3.31625 c 0,-2.08862 0.51529,-3.71825 1.52588,-4.88281 0.99712,-1.17722 2.37174,-1.74968 4.15039,-1.74968 1.92686,0 3.40428,0.62626 4.41487,1.89209 1.0106,1.25317 1.50554,3.08809 1.50554,5.49317 0,1.37975 -0.15142,2.70145 -0.48828,3.96728 -0.33687,1.26583 -0.84529,2.41571 -1.50554,3.47901 h 3.94694 c 0.49856,-1.34178 0.85609,-2.63273 1.09863,-3.88591 0.25602,-1.26583 0.38656,-2.49257 0.38656,-3.68245 0,-3.54432 -0.81098,-6.27499 -2.44141,-8.19906 -1.63042,-1.92406 -3.93943,-2.889 -6.91731,-2.889 z m -12.39014,22.94922 c -2.95093,0 -5.1709,0.82884 -6.69352,2.46176 -1.5361,1.62026 -2.31934,4.02491 -2.31934,7.20214 v 8.64665 h 30.17171 v -3.82487 h -12.12565 v -4.82178 c 0,-3.17723 -0.75602,-5.58188 -2.27864,-7.20214 -1.52263,-1.63292 -3.77668,-2.46176 -6.75456,-2.46176 z m 0,4.04867 c 1.81906,0 3.22778,0.49015 4.21143,1.46484 0.98363,0.97469 1.46484,2.36558 1.46484,4.15039 v 4.82178 h -11.3322 v -4.82178 c 0,-1.78481 0.50155,-3.1757 1.48519,-4.15039 0.98365,-0.97469 2.36515,-1.46484 4.17074,-1.46484 z m 12.83773,20.24333 c -2.45237,0 -4.40412,0.68775 -5.85938,2.05485 -1.46873,1.35444 -2.4927,3.46653 -3.0721,6.32731 l -0.50863,2.29899 c -0.41771,2.10128 -0.95388,3.53331 -1.6276,4.29281 -0.68721,0.74684 -1.69743,1.11897 -3.03141,1.11897 -1.59,0 -2.82009,-0.56205 -3.68246,-1.68864 -0.86237,-1.13924 -1.30208,-2.7535 -1.30208,-4.84212 0,-1.20254 0.1855,-2.432 0.54931,-3.72314 0.36382,-1.29115 0.9272,-2.67434 1.6683,-4.13005 h -3.98763 c -0.51203,1.44305 -0.90365,2.85202 -1.15967,4.23177 -0.25602,1.37976 -0.38656,2.73989 -0.38656,4.06901 0,3.10128 0.78324,5.53172 2.31934,7.30388 1.5361,1.75951 3.63901,2.64485 6.30697,2.64485 2.30415,0 4.09788,-0.63394 5.39144,-1.91243 1.29356,-1.27849 2.24195,-3.36481 2.8483,-6.22559 l 0.48828,-2.31933 c 0.41772,-1.94939 1.03633,-3.36333 1.87175,-4.21143 0.83543,-0.86077 1.9968,-1.28174 3.479,-1.28174 1.6978,0 3.01033,0.60049 3.9266,1.79037 0.91627,1.18988 1.36312,2.87603 1.36312,5.06592 0,1.44304 -0.22013,2.90085 -0.69173,4.39453 -0.47162,1.49368 -1.18615,3.02066 -2.11589,4.57763 h 4.21143 c 0.6333,-1.62026 1.10076,-3.17302 1.42415,-4.67936 0.32339,-1.51899 0.48828,-2.95102 0.48828,-4.2928 0,-3.55698 -0.74915,-6.26188 -2.2583,-8.09734 -1.50915,-1.84811 -3.72885,-2.76692 -6.65283,-2.76692 z m 4.90316,25.00407 v 14.42464 h -10.94564 v -13.48877 h -3.43832 v 13.48877 h -8.93148 v -14.07878 h -3.43831 v 17.92399 h 30.17171 V 309.42791 Z M 505.48734,346.049 c -4.77001,0 -8.56358,1.20098 -11.39323,3.58073 -2.84314,2.37976 -4.27247,5.54678 -4.27247,9.52149 0,3.98736 1.42933,7.1901 4.27247,9.58252 2.82965,2.37976 6.62322,3.56038 11.39323,3.56038 4.76999,0 8.58392,-1.18062 11.41357,-3.56038 2.82966,-2.39242 4.23177,-5.59516 4.23177,-9.58252 0,-3.97471 -1.40211,-7.14173 -4.23177,-9.52149 -2.84313,-2.37975 -6.65705,-3.58073 -11.41357,-3.58073 z m 0,4.04867 c 3.79982,0 6.80303,0.82883 9.01285,2.46175 2.20984,1.62026 3.31625,3.80697 3.31625,6.5918 0,2.78482 -1.10641,5.00725 -3.31625,6.65283 -2.20982,1.63292 -5.21303,2.4414 -9.01285,2.4414 -3.81331,0 -6.82338,-0.80848 -9.03321,-2.4414 -2.20983,-1.64558 -3.31624,-3.86801 -3.31624,-6.65283 0,-2.78483 1.10641,-4.97154 3.31624,-6.5918 2.20983,-1.63292 5.2199,-2.46175 9.03321,-2.46175 z m 15.05533,24.0275 -30.17171,10.80323 v 4.35384 l 30.17171,10.82357 v -4.04867 l -7.73112,-2.58382 v -12.77669 l 7.73112,-2.58383 z m -11.12874,7.77181 v 10.41667 l -15.01465,-5.20833 z m -19.04297,22.31853 v 3.84521 h 30.17171 v -3.84521 z m 30.17171,8.87044 -15.66569,9.72494 -14.50602,-9.11459 v 4.1097 l 11.23047,7.08008 -11.23047,7.05973 v 4.1097 l 14.07878,-8.82975 16.09293,10.13184 v -4.15039 l -12.81738,-8.0363 12.81738,-7.97526 z m -31.4331,41.42253 v 3.49935 h 31.4331 v -3.49935 z m 19.18538,9.23665 c -3.36864,0 -6.02144,0.83155 -7.97526,2.50244 -1.96728,1.65824 -2.95003,3.91413 -2.95003,6.77491 0,3.18989 1.09267,5.72295 3.27555,7.60905 2.16941,1.87342 5.10391,2.82796 8.80941,2.82796 3.58424,0 6.42255,-0.99568 8.52458,-2.97038 2.10203,-1.98735 3.15348,-4.68456 3.15348,-8.07699 0,-1.35443 -0.15115,-2.69151 -0.44759,-4.00797 -0.29644,-1.31646 -0.71581,-2.59204 -1.28174,-3.84522 h -3.51969 c 0.70067,1.24052 1.21622,2.49801 1.56657,3.76384 0.35033,1.25317 0.52897,2.54412 0.52897,3.8859 0,2.31647 -0.65983,4.12833 -1.99382,5.43213 -1.34746,1.29115 -3.29921,2.00468 -5.85937,2.15658 v -16.05225 z m -1.07829,3.49935 0.0204,12.45117 c -2.12898,-0.17721 -3.7919,-0.84959 -4.96419,-2.01416 -1.17229,-1.17722 -1.74968,-2.75033 -1.74968,-4.6997 0,-1.72153 0.598,-3.09207 1.81071,-4.13005 1.21271,-1.05063 2.84816,-1.58193 4.88281,-1.60726 z m -18.10709,21.89128 v 3.479 h 12.24772 c -1.34746,0.73419 -2.34394,1.68103 -2.99072,2.80762 -0.66025,1.11392 -0.99691,2.43834 -0.99691,4.00797 0,2.56963 1.09267,4.66636 3.27555,6.28663 2.18289,1.6076 5.04868,2.42106 8.60596,2.42106 3.55728,0 6.42307,-0.81346 8.60596,-2.42106 2.18287,-1.62027 3.27555,-3.717 3.27555,-6.28663 0,-1.56963 -0.30944,-2.89405 -0.95622,-4.00797 -0.66025,-1.12659 -1.66361,-2.07343 -3.01106,-2.80762 h 3.37727 v -3.479 z m 20.1416,3.479 c 2.73534,0 4.88633,0.54396 6.44938,1.60726 1.54958,1.0633 2.31934,2.50573 2.31934,4.35384 0,1.84811 -0.76976,3.31089 -2.31934,4.37419 -1.56305,1.05064 -3.71404,1.58691 -6.44938,1.58691 -2.73534,0 -4.87946,-0.53627 -6.42904,-1.58691 -1.56305,-1.0633 -2.33968,-2.52608 -2.33968,-4.37419 0,-1.84811 0.77663,-3.29054 2.33968,-4.35384 1.54958,-1.0633 3.6937,-1.60726 6.42904,-1.60726 z m 0,19.79574 c -3.71898,0 -6.62599,0.86997 -8.72803,2.60416 -2.10203,1.73419 -3.15348,4.12347 -3.15348,7.16146 0,3.05065 1.05145,5.42728 3.15348,7.16146 2.10204,1.72153 5.00905,2.58382 8.72803,2.58382 3.70551,0 6.61252,-0.86229 8.72803,-2.58382 2.10203,-1.73418 3.15348,-4.11081 3.15348,-7.16146 0,-3.03799 -1.05145,-5.42727 -3.15348,-7.16146 -2.11551,-1.73419 -5.02252,-2.60416 -8.72803,-2.60416 z m 0,3.7028 c 2.69492,0 4.8253,0.53899 6.38835,1.6276 1.56305,1.08862 2.33968,2.57445 2.33968,4.43522 0,1.88609 -0.76976,3.36695 -2.31934,4.45557 -1.56305,1.07596 -3.7003,1.60726 -6.40869,1.60726 -2.70839,0 -4.83877,-0.53899 -6.38835,-1.62761 -1.56305,-1.08861 -2.33968,-2.56179 -2.33968,-4.43522 0,-1.86077 0.7835,-3.3466 2.36003,-4.43522 1.56305,-1.08861 3.68656,-1.6276 6.368,-1.6276 z m -18.88021,21.74886 v 5.71696 l 20.5485,7.28353 -20.5485,7.22249 v 5.71696 h 30.17171 v -3.72314 h -26.48925 l 20.69091,-7.30388 v -3.84521 l -20.69091,-7.32422 h 26.48925 v -3.74349 z"
   style="font-size:40.1205px;font-family:OCRA;display:inline;stroke-width:1.44434"
   id="path2" /><path
   d="m 164.99253,96.822106 c -4.12326,0 -7.55479,1.125763 -10.29459,3.377274 -2.76693,2.2244 -4.58442,5.35754 -5.45248,9.39942 -0.54253,-3.36371 -1.91243,-5.91363 -4.1097,-7.64974 -2.19727,-1.73611 -5.15408,-2.604168 -8.87044,-2.604168 -4.80143,0 -8.50423,1.695428 -11.1084,5.086268 -2.60417,3.39084 -3.90625,8.2194 -3.90625,14.48567 v 20.9961 H 182.001 v -21.8099 c 0,-6.80881 -1.47841,-12.05784 -4.43522,-15.74707 -2.95682,-3.689236 -7.1479,-5.533854 -12.57325,-5.533854 z m -0.89518,8.666994 c 3.77061,0 6.57823,1.0715 8.42285,3.21452 1.81749,2.11588 2.72624,5.38466 2.72624,9.80631 v 13.1836 h -22.25749 v -13.1836 c 0,-4.42165 0.90875,-7.69043 2.72624,-9.80631 1.79037,-2.14302 4.58442,-3.21452 8.38216,-3.21452 z m -26.93685,2.11588 c 3.09245,0 5.39822,0.99013 6.91732,2.97038 1.49197,1.95312 2.23795,4.93707 2.23795,8.95182 v 12.16635 h -18.31054 v -12.16635 c 0,-4.01475 0.75954,-6.9987 2.27864,-8.95182 1.5191,-1.98025 3.81131,-2.97038 6.87663,-2.97038 z"
   style="font-size:83.3333px;fill:#ffffff;stroke-width:10.4167"
   id="path7" /><path
   d="m 186.04966,548.48228 -16.60156,8.34147 c -3.41797,1.68186 -6.10352,3.36372 -8.05664,5.04557 -1.95313,1.65473 -3.22808,3.36372 -3.82487,5.12695 -0.97656,-3.39084 -2.72624,-5.96788 -5.24903,-7.73112 -2.52278,-1.79036 -5.69661,-2.68554 -9.52148,-2.68554 -5.85937,0 -10.24034,1.70898 -13.1429,5.12695 -2.90256,3.41797 -4.35385,8.59917 -4.35385,15.54362 v 18.55469 h 60.75033 v -8.2194 h -25.67545 v -8.95183 c 0,-3.2552 0.6646,-5.81868 1.99381,-7.69043 1.32921,-1.89886 4.02832,-3.85199 8.09733,-5.85937 l 15.58431,-7.77181 z m -43.25358,16.76432 c 3.5536,0 6.25272,1.01725 8.09733,3.05176 1.81749,2.00737 2.72624,4.99131 2.72624,8.95182 v 10.33529 h -21.56576 v -10.33529 c 0,-3.96051 0.90875,-6.94445 2.72624,-8.95182 1.79037,-2.03451 4.46235,-3.05176 8.01595,-3.05176 z"
   style="font-size:83.3333px;fill:#ffffff;stroke-width:10.4167"
   id="path6" /></g>
</svg>
